# xmcd CD database file
# Copyright (C) 1993-1998 Ti Kan
# 
# Track frame offsets:
#     150
#     22830
#     59217
#     72605
#     91030
#     121410
#     143400
#     172785
#     191200
# 
# Disc length: 2734 seconds
# 
# Revision: 1
# Processed by: cddbd v1.4b41PL1 Copyright (c) Steve Scherf et al.
# Submitted via: DiscPlay 4.0.4
# 
DISCID=780aac09
DTITLE=Orszaczky Budget Orchestra - Deep Down and Out - Disk 1
DYEAR=1900
DGENRE=
TTITLE0=Take Me As I Am
TTITLE1=Be Good To Me
TTITLE2=The Other Woman
TTITLE3=Playhouse
TTITLE4=Living For the City
TTITLE5=Summertime
TTITLE6=From The Love Side
TTITLE7=Sometimes You Treat Me
TTITLE8=In The Dark
EXTD=
EXTT0=
EXTT1=
EXTT2=
EXTT3=
EXTT4=
EXTT5=
EXTT6=
EXTT7=
EXTT8=
PLAYORDER=
